<svg width="16" height="16" viewBox="0 0 16 16" fill="none" xmlns="http://www.w3.org/2000/svg">
<path fill-rule="evenodd" clip-rule="evenodd" d="M7 8V15H14V8H7ZM6.5 7C6.22386 7 6 7.22386 6 7.5V15.5C6 15.7761 6.22386 16 6.5 16H14.5C14.7761 16 15 15.7761 15 15.5V7.5C15 7.22386 14.7761 7 14.5 7H6.5Z" fill="#181818"/>
<path d="M8 11H9V12H8V11Z" fill="#181818"/>
<path d="M8 9H9V10H8V9Z" fill="#181818"/>
<path d="M10 11H11V12H10V11Z" fill="#181818"/>
<path d="M12 11H13V12H12V11Z" fill="#181818"/>
<path d="M10 9H11V10H10V9Z" fill="#181818"/>
<path d="M12 9H13V10H12V9Z" fill="#181818"/>
<path d="M10 13H11V14H10V13Z" fill="#181818"/>
<path d="M12 13H13V14H12V13Z" fill="#181818"/>
<path d="M8 13H9V14H8V13Z" fill="#181818"/>
<path d="M1 2V15H5V16H0.5C0.223862 16 0 15.7761 0 15.5V1.5C0 1.22385 0.223854 1 0.5 1H10.5C10.7761 1 11 1.22385 11 1.5V6H10V2H1Z" fill="#181818"/>
<path d="M9 6V5H8V6H9Z" fill="#181818"/>
<path d="M7 6V5H6V6H7Z" fill="#181818"/>
<path d="M5 6V5H4V6H5Z" fill="#181818"/>
<path d="M5 14V13H4V14H5Z" fill="#181818"/>
<path d="M5 12V11H4V12H5Z" fill="#181818"/>
<path d="M5 10V9H4V10H5Z" fill="#181818"/>
<path d="M5 8V7H4V8H5Z" fill="#181818"/>
<path d="M4 3H5V4H4V3Z" fill="#181818"/>
<path d="M2 3H3V4H2V3Z" fill="#181818"/>
<path d="M3 5H2V6H3V5Z" fill="#181818"/>
<path d="M2 7H3V8H2V7Z" fill="#181818"/>
<path d="M3 9H2V10H3V9Z" fill="#181818"/>
<path d="M2 11H3V12H2V11Z" fill="#181818"/>
<path d="M3 13H2V14H3V13Z" fill="#181818"/>
<path d="M6 3H7V4H6V3Z" fill="#181818"/>
<path d="M9 3H8V4H9V3Z" fill="#181818"/>
</svg>
