<svg width="16" height="16" viewBox="0 0 16 16" fill="none" xmlns="http://www.w3.org/2000/svg">
<path fill-rule="evenodd" clip-rule="evenodd" d="M2.94444 3C2.42284 3 2 3.42284 2 3.94444V13.0556C2 13.5772 2.42284 14 2.94444 14H13.0556C13.5772 14 14 13.5772 14 13.0556V3.94444C14 3.42284 13.5772 3 13.0556 3H2.94444ZM1 3.94444C1 2.87056 1.87056 2 2.94444 2H13.0556C14.1294 2 15 2.87056 15 3.94444V13.0556C15 14.1294 14.1294 15 13.0556 15H2.94444C1.87056 15 1 14.1294 1 13.0556V3.94444Z" fill="#181818"/>
<path fill-rule="evenodd" clip-rule="evenodd" d="M10.5 1C10.7761 1 11 1.22386 11 1.5V3.5C11 3.77614 10.7761 4 10.5 4C10.2239 4 10 3.77614 10 3.5V1.5C10 1.22386 10.2239 1 10.5 1Z" fill="#181818"/>
<path fill-rule="evenodd" clip-rule="evenodd" d="M5.5 1C5.77614 1 6 1.22386 6 1.5V3.5C6 3.77614 5.77614 4 5.5 4C5.22386 4 5 3.77614 5 3.5V1.5C5 1.22386 5.22386 1 5.5 1Z" fill="#181818"/>
<path fill-rule="evenodd" clip-rule="evenodd" d="M1 6.5C1 6.22386 1.22386 6 1.5 6H14.5C14.7761 6 15 6.22386 15 6.5C15 6.77614 14.7761 7 14.5 7H1.5C1.22386 7 1 6.77614 1 6.5Z" fill="#181818"/>
</svg>
