<svg width="16" height="16" viewBox="0 0 16 16" fill="none" xmlns="http://www.w3.org/2000/svg">
<path fill-rule="evenodd" clip-rule="evenodd" d="M0 8.5C0 8.22386 0.238781 8 0.533333 8H4.85614C5.07644 8 5.27407 8.12698 5.35355 8.31961C5.59885 8.91408 5.93298 9.3229 6.34567 9.58708C6.75859 9.85142 7.29554 10 8 10C8.70446 10 9.24141 9.85142 9.65434 9.58708C10.067 9.3229 10.4011 8.91408 10.6464 8.31961C10.7259 8.12698 10.9236 8 11.1439 8H15.4667C15.7612 8 16 8.22386 16 8.5C16 8.77614 15.7612 9 15.4667 9H11.4955C11.1981 9.59086 10.7911 10.0703 10.2558 10.4129C9.62736 10.8152 8.86747 11 8 11C7.13253 11 6.37264 10.8152 5.74416 10.4129C5.20891 10.0703 4.80186 9.59086 4.50455 9H0.533333C0.238781 9 0 8.77614 0 8.5Z" fill="#181818"/>
<path fill-rule="evenodd" clip-rule="evenodd" d="M1 8.00002L3.35244 2.89338L3.38 2.82503C3.38425 2.81599 3.38859 2.80699 3.39301 2.79805C3.41072 2.76222 3.42974 2.72725 3.45 2.69322C3.5642 2.50143 3.71799 2.3394 3.90023 2.22008C3.97518 2.171 4.05393 2.12981 4.13539 2.09683C4.29591 2.03185 4.46692 1.99875 4.64 2.00004H11.36C11.6209 1.99809 11.8771 2.0743 12.0998 2.22008C12.3224 2.36585 12.5026 2.57538 12.62 2.82503L15 8.00002V12.5C15 12.8978 14.8525 13.2794 14.5899 13.5607C14.3274 13.842 13.9713 14 13.6 14H2.4C1.63 14 1 13.325 1 12.5V8.00002ZM11.3568 1.00004C11.8175 0.997449 12.2647 1.13275 12.6476 1.38346C13.0308 1.63441 13.3318 1.98885 13.5249 2.39947L13.5286 2.40718L15.9085 7.58218C15.9688 7.71323 16 7.85577 16 8.00002V12.5C16 13.1416 15.7627 13.7697 15.321 14.243C14.8771 14.7186 14.2597 15 13.6 15H2.4C1.01386 15 0 13.8112 0 12.5V8.00002C0 7.85203 0.0328478 7.70588 0.0961738 7.57212L2 3.5C2.05108 3.29985 2.42382 2.50846 2.47507 2.39947C2.66818 1.98885 2.96917 1.63441 3.35244 1.38346C3.73534 1.13275 4.18253 0.997449 4.64321 1.00004M4.64321 1.00004H11.3568Z" fill="#181818"/>
</svg>
