<svg width="16" height="16" viewBox="0 0 16 16" fill="none" xmlns="http://www.w3.org/2000/svg">
<path fill-rule="evenodd" clip-rule="evenodd" d="M2.13474 10.8945C2.84218 10.314 3.78392 10 4.75 10H11.25C12.2161 10 13.1578 10.314 13.8653 10.8945C14.5755 11.4773 15 12.2913 15 13.1667V15.5C15 15.7761 14.7761 16 14.5 16C14.2239 16 14 15.7761 14 15.5V13.1667C14 12.6276 13.7397 12.085 13.2309 11.6676C12.7194 11.2479 12.0078 11 11.25 11H4.75C3.99217 11 3.28061 11.2479 2.76906 11.6676C2.26029 12.085 2 12.6276 2 13.1667V15.5C2 15.7761 1.77614 16 1.5 16C1.22386 16 1 15.7761 1 15.5V13.1667C1 12.2913 1.42453 11.4773 2.13474 10.8945Z" fill="#181818"/>
<path fill-rule="evenodd" clip-rule="evenodd" d="M8 1C6.34315 1 5 2.34315 5 4C5 5.65685 6.34315 7 8 7C9.65685 7 11 5.65685 11 4C11 2.34315 9.65685 1 8 1ZM4 4C4 1.79086 5.79086 0 8 0C10.2091 0 12 1.79086 12 4C12 6.20914 10.2091 8 8 8C5.79086 8 4 6.20914 4 4Z" fill="#181818"/>
</svg>
