<svg width="16" height="16" viewBox="0 0 16 16" fill="none" xmlns="http://www.w3.org/2000/svg">
<g clip-path="url(#clip0_5_812)">
<path fill-rule="evenodd" clip-rule="evenodd" d="M1.48837 5.94137C1.75809 5.94137 1.97674 6.16002 1.97674 6.42974V14.2093C1.97674 14.4252 2.0625 14.6322 2.21514 14.7849C2.36779 14.9375 2.57482 15.0233 2.7907 15.0233H13.2093C13.4252 15.0233 13.6322 14.9375 13.7849 14.7849C13.9375 14.6322 14.0233 14.4252 14.0233 14.2093V6.42974C14.0233 6.16002 14.2419 5.94137 14.5116 5.94137C14.7813 5.94137 15 6.16002 15 6.42974V14.2093C15 14.6842 14.8113 15.1397 14.4755 15.4755C14.1397 15.8113 13.6842 16 13.2093 16H2.7907C2.31577 16 1.8603 15.8113 1.52448 15.4755C1.18866 15.1397 1 14.6842 1 14.2093L1 6.42974C1 6.16002 1.21865 5.94137 1.48837 5.94137Z" fill="#181818"/>
<path fill-rule="evenodd" clip-rule="evenodd" d="M7.68156 0.118096C7.86466 -0.0393652 8.13534 -0.0393652 8.31844 0.118096L15.8301 6.7181C16.0346 6.89396 16.0578 7.20231 15.8819 7.40681C15.706 7.61131 15.3977 7.63452 15.1932 7.45865L8 1.1325L0.806817 7.45865C0.60232 7.63452 0.293972 7.61131 0.118104 7.40681C-0.0577642 7.20231 -0.0345552 6.89396 0.169943 6.7181L7.68156 0.118096ZM5.02326 8.48837C5.02326 8.21865 5.24191 8 5.51163 8H10.4884C10.7581 8 10.9767 8.21865 10.9767 8.48837V15.5116C10.9767 15.7813 10.7581 16 10.4884 16C10.2187 16 10 15.7813 10 15.5116V8.97674H6V15.5116C6 15.7813 5.78135 16 5.51163 16C5.24191 16 5.02326 15.7813 5.02326 15.5116V8.48837Z" fill="#181818"/>
</g>
<defs>
<clipPath id="clip0_5_812">
<rect width="16" height="16" fill="white"/>
</clipPath>
</defs>
</svg>
