<svg width="16" height="16" viewBox="0 0 16 16" fill="none" xmlns="http://www.w3.org/2000/svg">
<path fill-rule="evenodd" clip-rule="evenodd" d="M4.5 7C4.77614 7 5 7.22386 5 7.5V15.5C5 15.7761 4.77614 16 4.5 16C4.22386 16 4 15.7761 4 15.5V7.5C4 7.22386 4.22386 7 4.5 7Z" fill="#181818"/>
<path fill-rule="evenodd" clip-rule="evenodd" d="M13.5 7C13.7761 7 14 7.22386 14 7.5V15.5C14 15.7761 13.7761 16 13.5 16C13.2239 16 13 15.7761 13 15.5V7.5C13 7.22386 13.2239 7 13.5 7Z" fill="#181818"/>
<path fill-rule="evenodd" clip-rule="evenodd" d="M7.5 5C7.77614 5 8 5.22386 8 5.5V15.5C8 15.7761 7.77614 16 7.5 16C7.22386 16 7 15.7761 7 15.5V5.5C7 5.22386 7.22386 5 7.5 5Z" fill="#181818"/>
<path fill-rule="evenodd" clip-rule="evenodd" d="M10.5 1C10.7761 1 11 1.22386 11 1.5V15.5C11 15.7761 10.7761 16 10.5 16C10.2239 16 10 15.7761 10 15.5V1.5C10 1.22386 10.2239 1 10.5 1Z" fill="#181818"/>
<path fill-rule="evenodd" clip-rule="evenodd" d="M1.5 10C1.77614 10 2 10.2239 2 10.5V15.5C2 15.7761 1.77614 16 1.5 16C1.22386 16 1 15.7761 1 15.5V10.5C1 10.2239 1.22386 10 1.5 10Z" fill="#181818"/>
</svg>
