<svg width="16" height="16" viewBox="0 0 16 16" fill="none" xmlns="http://www.w3.org/2000/svg">
<path fill-rule="evenodd" clip-rule="evenodd" d="M3.83333 2.99997C3.61232 2.99997 3.40036 3.08777 3.24408 3.24405C3.0878 3.40033 3 3.61229 3 3.83331V13.1666C3 13.3877 3.0878 13.5996 3.24408 13.7559C3.40036 13.9122 3.61232 14 3.83333 14H12.1667C12.3877 14 12.5996 13.9122 12.7559 13.7559C12.9122 13.5996 13 13.3877 13 13.1666V3.83331C13 3.61229 12.9122 3.40033 12.7559 3.24405C12.5996 3.08777 12.3877 2.99997 12.1667 2.99997H10.8333C10.5572 2.99997 10.3333 2.77611 10.3333 2.49997C10.3333 2.22383 10.5572 1.99997 10.8333 1.99997H12.1667C12.6529 1.99997 13.1192 2.19313 13.463 2.53694C13.8068 2.88076 14 3.34708 14 3.83331V13.1666C14 13.6529 13.8068 14.1192 13.463 14.463C13.1192 14.8068 12.6529 15 12.1667 15H3.83333C3.3471 15 2.88079 14.8068 2.53697 14.463C2.19315 14.1192 2 13.6529 2 13.1666V3.83331C2 3.34708 2.19315 2.88076 2.53697 2.53694C2.88079 2.19313 3.3471 1.99997 3.83333 1.99997H5.5C5.77615 1.99997 6 2.22383 6 2.49997C6 2.77611 5.77615 2.99997 5.5 2.99997H3.83333Z" fill="#181818"/>
<path fill-rule="evenodd" clip-rule="evenodd" d="M6.16666 1.99994C6.07462 1.99994 6 2.07456 6 2.16661V3.8333C6 3.92534 6.07462 3.99996 6.16666 3.99996L9.83333 4C9.92538 4 10 3.92538 10 3.83333V2.16664C10 2.0746 9.92538 1.99998 9.83333 1.99998L6.16666 1.99994ZM5 2.16661C5 1.52227 5.52233 0.999939 6.16666 0.999939L9.83333 0.999977C10.4777 0.999977 11 1.52231 11 2.16664V3.83333C11 4.47767 10.4777 5 9.83333 5L6.16666 4.99996C5.52233 4.99996 5 4.47763 5 3.8333V2.16661Z" fill="#181818"/>
</svg>
